<?xml version="1.0" encoding="utf-8"?>
<!-- Generator: Adobe Illustrator 19.0.0, SVG Export Plug-In . SVG Version: 6.00 Build 0)  -->
<svg version="1.1" id="Layer_1" xmlns="http://www.w3.org/2000/svg" xmlns:xlink="http://www.w3.org/1999/xlink" x="0px" y="0px"
	 viewBox="279.2 291.8 829.5 207.3" style="enable-background:new 279.2 291.8 829.5 207.3;" xml:space="preserve">
<style type="text/css">
	.st0{fill:#2EA5DE;}
	.st1{fill:#43AB49;}
</style>
<g>
	<path class="st0" d="M573.2,298.1l9.6,1.4h62l0.5,0.9c-1.2,0.9-2.6,2.2-3.9,3.4c-1.2,1.2-2.6,2.6-3.9,4.2l-3.7,4.3l-3.1,4l-42,54
		l0.2,0.3l15.3-0.6c3.6-0.2,7.3-0.5,11.2-0.8c3.7-0.3,7.5-0.8,10.9-1.4c3.4-0.6,6.7-1.1,9.6-1.7c3-0.6,5.4-1.2,7.4-2l1.2,0.8
		L633,382.6h-73.2l-0.3-0.9l54-69.1l-0.2-0.3l-22.2,0.8c-2.2,0.2-4.6,0.3-7.4,0.6c-2.8,0.3-5.6,0.6-8.2,1.1
		c-2.8,0.5-5.3,1.1-7.6,1.5c-2.3,0.6-4.2,1.1-5.4,1.7l-1.1-0.8l10.7-19.2h1.1L573.2,298.1L573.2,298.1z"/>
	<path class="st0" d="M741.4,318.4c-1.4-0.9-3.1-1.9-5.1-2.5c-2-0.6-4.5-1.2-7-1.7c-2.6-0.5-5.3-0.8-8.2-0.9
		c-2.8-0.2-5.7-0.3-8.7-0.3h-27.9v21.1h50.1l0.6,1.1l-9,15.5h-1.4c-0.8-0.6-1.7-1.1-3.1-1.4c-1.4-0.5-2.8-0.8-4.3-1.1
		c-1.6-0.3-3.3-0.5-5-0.6c-1.7-0.2-3.4-0.2-5.1-0.2h-23v22h20.3c2.3,0,5.3,0,9-0.2c3.6-0.2,7.3-0.3,11.3-0.8
		c3.9-0.3,7.8-0.9,11.3-1.5s6.7-1.6,9.3-2.5l1.1,0.8l-10.4,17.7h-71.9v-1.4c0.9-0.9,1.7-2.5,2.2-4.5c0.6-2.2,0.9-4.5,1.1-6.8
		c0.2-2.5,0.3-4.8,0.5-7.1c0.2-2.3,0-4,0-5.3v-41.5v-3.9c0-1.4-0.2-2.8-0.5-4.2c-0.1-1.4-0.6-2.8-1.1-4c-0.5-1.2-1.2-2.3-2.2-3.3
		v-1.4h72.9l5.4,18L741.4,318.4z"/>
	<path class="st0" d="M798.3,335.2c0.9,0.6,2.2,1.1,3.4,1.1c1.4,0.2,2.6,0.2,4.2,0.2h13c4.5,0,8.1-1.1,10.8-3.4c2.8-2.3,4-5.1,4-8.5
		s-1.4-6.2-4.2-8.4c-2.8-2.2-6.3-3.3-10.7-3.3h-35.8v44.6v5.3c0,2.3,0.2,4.6,0.6,7.1c0.3,2.5,0.8,4.8,1.5,6.8c0.8,2.2,1.7,3.7,3,4.5
		v1.4h-26v-1.4c1.1-0.9,1.9-2.5,2.5-4.5c0.6-2.2,0.9-4.5,1.2-6.8c0.3-2.5,0.5-4.8,0.5-7.1v-5.3v-41.2v-3.9c0-1.4-0.2-2.8-0.5-4.2
		c-0.3-1.4-0.6-2.8-1.2-4c-0.6-1.2-1.4-2.3-2.5-3.3v-1.4h56.6c4.5,0,8.5,0.6,12.3,1.7c3.7,1.1,7,2.8,9.6,4.8c2.6,2,4.7,4.6,6.2,7.8
		c1.5,3.1,2.3,6.5,2.3,10.4c0,3.1-0.5,6-1.4,8.7c-0.9,2.8-2.3,5.1-4.3,7.4c-1.9,2.2-4.3,4-7.1,5.6c-2.8,1.6-6,2.5-9.8,3.1l-0.2,0.6
		l6.5,8.5c4,5.1,7.6,9.6,10.7,13.3c3.1,3.7,6.3,6.7,9.5,9.1v1.4c-1.7,1.1-3.4,1.9-5.1,2.3c-1.7,0.5-3.6,0.6-5.3,0.6
		c-2.9,0-5.4-0.5-7.8-1.4c-2.3-0.9-4.2-2.2-5.9-3.4c-1.7-1.4-3.3-2.8-4.5-4.3c-1.2-1.6-2.3-2.9-3.3-4.2l-15.5-21.2h-16l-0.6-1.1
		l7.8-13.8h1.4L798.3,335.2L798.3,335.2z"/>
	<path class="st0" d="M911.3,317l-14.4,32.9h29.9L911.9,317H911.3z M862.8,381.4c1.1-0.9,2.3-2.5,3.7-4.5c1.4-2.2,2.8-4.5,4-6.8
		c1.2-2.5,2.5-4.8,3.6-7.1l2.5-5.3l18.4-41.2l1.7-3.9c0.6-1.4,1.1-2.8,1.2-4.2c0.3-1.4,0.3-2.8,0.2-4c-0.2-1.2-0.8-2.3-1.7-3.3v-1.6
		h30.1v1.4c-0.8,0.9-1.1,2-1.1,3.4c0,1.4,0.2,2.6,0.6,4c0.3,1.4,0.8,2.8,1.4,4.2l1.7,3.9l18.8,41.1c0.6,1.2,1.4,3.1,2.5,5.3
		c1.1,2.2,2.3,4.6,3.6,7.1c1.4,2.5,2.6,4.8,4,6.8c1.4,2.2,2.5,3.7,3.6,4.5v1.4h-25v-1.4c0.8-0.9,1.1-2,1.1-3.3
		c0-1.2-0.2-2.5-0.5-3.9c-0.3-1.4-0.8-2.6-1.4-4l-1.7-3.9l-1.5-3.3h-41.9l-1.4,3.3l-1.5,3.7c-0.6,1.4-0.9,2.8-1.2,4
		c-0.3,1.4-0.5,2.6-0.3,3.9c0.2,1.2,0.6,2.3,1.6,3.3v1.4h-25.3v-1.1L862.8,381.4L862.8,381.4z"/>
	<path class="st0" d="M1003,342.6l22.6-26.4c0.3-0.5,1.1-1.4,2.2-2.6c1.1-1.2,2.2-2.6,3.1-4.2c0.9-1.5,1.7-3.1,2.3-4.6
		c0.5-1.6,0.3-2.8-0.5-4v-1.2h27.3v1.4l-15,15.5l-20.9,24.3v0.5L1041,358c5.9,5.9,11.5,10.7,16.4,14.6c5,3.9,9.2,6.7,12.1,8.2v0.9
		c-1.9,1.2-3.6,2-5.3,2.3c-1.7,0.5-3.6,0.6-5.3,0.6c-3.6,0-6.8-0.5-9.6-1.4c-2.9-0.9-5.6-2-8.1-3.4c-2.5-1.4-4.7-3-6.8-4.8
		c-2.2-1.9-3.9-3.6-5.6-5.3l-26-26.7v-0.5L1003,342.6L1003,342.6z M997.8,362.8c0,2.3,0.2,4.6,0.6,7.1c0.3,2.5,0.8,4.8,1.4,6.8
		c0.6,2.2,1.6,3.7,2.8,4.5v1.4h-26.7v-1.4c1.2-0.9,2.3-2.5,3-4.5c0.8-2.2,1.2-4.5,1.5-6.8c0.3-2.5,0.5-4.8,0.6-7.1
		c0.2-2.3,0-4,0-5.3v-41.2v-3.9c0-1.4-0.2-2.8-0.6-4.2c-0.3-1.4-0.8-2.8-1.5-4c-0.8-1.2-1.7-2.3-3-3.3v-1.4h26.7v1.4
		c-1.2,0.9-2,2-2.8,3.3c-0.8,1.2-1.1,2.6-1.4,4c-0.3,1.4-0.5,2.8-0.6,4.2v3.9v41.2C997.6,358.7,997.6,360.4,997.8,362.8"/>
	<path class="st0" d="M1104,362.8c0,2.3,0.2,4.6,0.6,7.1c0.3,2.5,0.8,4.8,1.4,6.8c0.6,2.2,1.5,3.7,2.8,4.5v1.4h-26.7v-1.4
		c1.2-0.9,2.3-2.5,3-4.5c0.8-2.2,1.2-4.5,1.5-6.8c0.3-2.5,0.5-4.8,0.6-7.1c0.2-2.3,0-4,0-5.3v-41.2v-3.9c0-1.4-0.2-2.8-0.6-4.2
		c-0.3-1.4-0.8-2.8-1.5-4c-0.8-1.2-1.7-2.3-3-3.3v-1.4h26.7v1.4c-1.2,0.9-2,2-2.8,3.3c-0.6,1.2-1.1,2.6-1.4,4
		c-0.3,1.4-0.5,2.8-0.6,4.2v3.9v41.2C1104,358.7,1104,360.4,1104,362.8"/>
	<path class="st1" d="M1063.4,484.6c10.3,0,17.7-5.8,17.7-14.6v-0.1c0-7.9-5.3-12.1-16.8-14.6c-11.4-2.4-14-5.2-14-10V445
		c0-4.6,4.3-8.4,11-8.4c5.3,0,10.1,1.7,14.9,5.6l3.4-4.5c-5.2-4.2-10.6-6.3-18.2-6.3c-9.8,0-17,6-17,14.1v0.1
		c0,8.5,5.5,12.3,17.3,14.9c10.9,2.3,13.4,5,13.4,9.8v0.1c0,5.1-4.6,8.8-11.5,8.8c-7.2,0-12.3-2.4-17.7-7.3l-3.6,4.3
		C1048.5,481.8,1055.2,484.6,1063.4,484.6 M1005.2,484.7c9.4,0,15.3-3.6,20.7-9.1l-3.8-3.8c-5,4.7-9.6,7.5-16.7,7.5
		c-11.4,0-20-9.4-20-21.3v-0.1c0-11.9,8.6-21.2,20-21.2c7,0,11.9,3,16.3,7.1l4-4.3c-5.2-4.9-10.8-8.2-20.2-8.2
		c-15.2,0-26.1,12.1-26.1,26.7v0.1C979.3,473,990.3,484.7,1005.2,484.7 M951,483.8h5.8v-51.7H951V483.8z M906.7,483.8h5.9v-46.3
		h17.3v-5.4h-40.6v5.4h17.3V483.8z M846.7,483.8h5.9v-20.5l21.5-31.1h-6.8L849.8,458l-17.4-25.8h-7.1l21.5,31.2L846.7,483.8
		L846.7,483.8z M784.8,483.8h34.9v-5.4h-29.1v-46.3h-5.8L784.8,483.8L784.8,483.8z M726.9,464.9l11.8-26.3l11.7,26.3H726.9z
		 M712.5,483.8h6l6.1-13.7h28.1l6,13.7h6.3l-23.6-52H736L712.5,483.8z M649,483.8h5.7v-42.4l33.4,42.4h4.7v-51.7H687v41.4
		l-32.6-41.4H649V483.8z M591,464.9l11.8-26.3l11.7,26.3H591z M576.6,483.8h6l6.1-13.7h28.1l6,13.7h6.3l-23.5-52h-5.5L576.6,483.8z"
		/>
	<path class="st1" d="M314.8,498.1c-0.5-0.5-8.5-10.2-17.8-21.5c-9.3-11.3-17.2-20.9-17.5-21.1c-0.6-0.8-0.3-1.1,3.7-3.9
		c18.3-12.7,40.3-31.3,58.1-49.5c14.7-14.9,25.9-28.2,36.1-43.1c1.7-2.5,3.3-4.5,3.4-4.6c0.2-0.2,2.2,0.2,4.3,0.8
		c3.6,0.8,5,0.9,10.6,0.9c3.6,0,6.5,0.2,6.5,0.3c0,0.2-2,2.6-4.5,5.6c-31.3,35.8-57.7,73.5-70.5,100.3c-4.3,9.1-7.4,17-9.1,24
		l-0.9,3.6l0.8,0.2c2,0.3,33.9-1.7,56.6-3.4c47.4-3.6,80.6-8.2,96.1-13.5l3.4-1.1l6.8,4.2c12.7,7.8,15.8,9.6,15.8,9.9
		c0,0.2-7,0.3-17.2,0.5c-17.5,0.2-20.6,0.3-39.1,1.1c-28.2,1.2-59.4,3.7-90.9,7.3c-8.8,0.9-31.1,3.7-32.9,4
		C315.8,498.9,315.4,498.7,314.8,498.1"/>
	<path class="st1" d="M321.2,486.2c-0.2-0.3,19.1-37.8,19.5-38.4c0.3-0.3,1.1-0.3,3.3,0c4.2,0.5,15.2,0.5,20.6-0.2
		c16.9-1.7,33.2-6.7,50.2-15.2l7.1-3.6l27.9,9c15.3,5,27.9,9.1,28.1,9.3c0.2,0.6-11.6,6.2-23.4,11c-33.8,13.5-72.6,22.8-111.3,26.8
		C331.9,486,321.3,486.6,321.2,486.2"/>
	<path class="st1" d="M371.9,483.8c-0.3-0.5,0.2-0.6,3.1-0.9c29-3.9,60.5-12.4,85.3-22.9l6.2-2.6l6.7,3.4c3.7,1.9,6.7,3.6,6.7,3.7
		s-0.9,0.8-2.2,1.5c-15.8,8.5-50.9,15-94.7,17.8C373.4,484.1,372.2,484.1,371.9,483.8"/>
	<path class="st0" d="M347.1,438.9c-0.3-0.9,13-20.6,23.4-34.4c26.4-35.2,60-70.2,93.5-97.2c5.7-4.5,5.4-4,3.4-7l-0.9-1.4l-3.9,0.2
		c-2.2,0.2-12.6,0.6-23.1,0.9c-34.7,1.5-51.6,2.6-72.2,4.3c-30.8,2.6-55.3,6.5-69.6,11c-1.4,0.5-2.8,0.8-2.9,0.6
		c0-0.2-3.1-5.6-6.7-12.1c-4.2-7.3-6.5-11.9-6.4-12.1c0.3-0.3,186.5,2.6,188.8,2.9c0.9,0.2,1.4,0.8,7.3,10.5
		c5,8.2,6.2,10.4,5.9,10.7c-0.2,0.2-2.6,1.7-5.4,3.3c-43.6,24.8-78.1,56.7-99.5,92.2c-4.2,7-9.5,18-11.2,22.8
		c-0.3,0.9-0.8,2-0.9,2.2C366.1,437,347.2,439.4,347.1,438.9"/>
	<path class="st0" d="M302.4,356.3l-13.5-18l0.8-0.8c1.1-1.1,7.3-4.5,12.3-6.8c27.4-12.5,68.2-21.9,117.5-26.8
		c17.4-1.7,42-3.4,42.6-2.9c0.2,0.2-0.8,1.4-2.5,2.8c-1.6,1.4-11.6,11-22.6,21.2l-19.8,18.8l-4.6,0.3c-17.7,1.6-40.6,6.4-58,12.1
		c-13.5,4.5-28.5,11.5-37.8,17.7l-0.9,0.6L302.4,356.3z"/>
	<path class="st0" d="M290,325.6c-2.6-3.1-3.6-4.3-3.3-4.6c0.5-0.3,12.9-3.4,20.1-5c19.4-4,51.5-8.5,51.9-7.1c0,0.2-1.6,0.6-3.4,0.9
		c-11.9,2-35.4,9.5-60.1,19.5l-1.7,0.6L290,325.6z"/>
</g>
</svg>
